<svg width="0" height="0" class="hidden">
    <symbol xmlns="http://www.w3.org/2000/svg" viewBox="0 0 24 24" id="logo">
        <title>logo</title>
        <defs>
            <linearGradient x1="84.203%" y1="15.775%" x2="14.584%" y2="83.898%" id="a">
                <stop stop-color="#0000B3" offset="0%"></stop>
                <stop stop-color="#00F" offset="100%"></stop>
            </linearGradient>
        </defs>
        <g fill="none" fill-rule="evenodd">
            <circle fill="url(#a)" cx="12" cy="12" r="12"></circle>
            <path d="M6.667 8h1.162v3.264h.054c.12-.334.318-.592.592-.773.273-.182.595-.272.965-.272.704 0 1.248.254 1.632.762.384.509.576 1.222.576 2.139 0 .917-.192 1.63-.576 2.139-.384.508-.928.762-1.632.762a1.68 1.68 0 01-.965-.277 1.546 1.546 0 01-.592-.768h-.054v.917H6.667V8zm2.421 7.019c.405 0 .729-.13.97-.39.242-.26.363-.602.363-1.029v-.96c0-.427-.12-.77-.362-1.03-.242-.259-.566-.389-.971-.389-.356 0-.654.087-.896.262a.81.81 0 00-.363.688v1.898c0 .285.121.514.363.688.242.175.54.262.896.262zm7.381-.043h-.053a1.54 1.54 0 01-.592.768 1.683 1.683 0 01-.965.277c-.704 0-1.248-.254-1.632-.762-.384-.509-.576-1.222-.576-2.139 0-.917.192-1.63.576-2.139.384-.508.928-.762 1.632-.762.37 0 .691.09.965.272.274.181.471.439.592.773h.053V8h1.163v7.893h-1.163v-.917zm-1.258.043c.355 0 .654-.087.896-.262a.81.81 0 00.362-.688v-1.898a.81.81 0 00-.362-.688c-.242-.175-.54-.262-.896-.262-.406 0-.73.13-.971.39-.242.26-.363.602-.363 1.029v.96c0 .427.121.77.363 1.03.242.259.565.389.97.389z"
                  fill="#FFF" fill-rule="nonzero"></path>
        </g>
    </symbol>
    <symbol xmlns="http://www.w3.org/2000/svg" viewBox="0 0 24 24" id="menu">
        <path d="M0 0h24v24H0V0z" fill="none"></path>
        <path d="M3 18h18v-2H3v2zm0-5h18v-2H3v2zm0-7v2h18V6H3z"></path>
    </symbol>
    <symbol xmlns="http://www.w3.org/2000/svg" viewBox="0 0 24 24" id="spotify">
        <path d="M12 24c6.624 0 12-5.376 12-12S18.624 0 12 0 0 5.376 0 12s5.376 12 12 12zm4.872-6.344v.001c-.807 0-3.356-2.828-10.52-1.36-.189.049-.436.126-.576.126-.915 0-1.09-1.369-.106-1.578 3.963-.875 8.013-.798 11.467 1.268.824.526.474 1.543-.265 1.543zm1.303-3.173c-.113-.03-.08.069-.597-.203-3.025-1.79-7.533-2.512-11.545-1.423-.232.063-.358.126-.576.126-1.071 0-1.355-1.611-.188-1.94 4.716-1.325 9.775-.552 13.297 1.543.392.232.547.533.547.953a.938.938 0 01-.938.944zM4.548 6.998c4.523-1.324 11.368-.906 15.624 1.578 1.091.629.662 2.22-.498 2.22l-.001-.001c-.252 0-.407-.063-.625-.189C15.605 8.55 9.444 8.057 5.458 9.17c-.175.048-.393.125-.625.125-.639 0-1.127-.499-1.127-1.142 0-.657.407-1.029.842-1.155z"></path>
    </symbol>
    <symbol xmlns="http://www.w3.org/2000/svg" viewBox="0 0 24 24" id="telegram">
        <path d="M12 24c6.629 0 12-5.371 12-12S18.629 0 12 0 0 5.371 0 12s5.371 12 12 12zM5.491 11.74l11.57-4.461c.537-.194 1.006.131.832.943l.001-.001-1.97 9.281c-.146.658-.537.818-1.084.508l-3-2.211-1.447 1.394c-.16.16-.295.295-.605.295l.213-3.053 5.56-5.023c.242-.213-.054-.333-.373-.121l-6.871 4.326-2.962-.924c-.643-.204-.657-.643.136-.953z"></path>
    </symbol>
    <symbol xmlns="http://www.w3.org/2000/svg" viewBox="0 0 512 512" id="twitter">
        <path d="M512 97.248c-19.04 8.352-39.328 13.888-60.48 16.576 21.76-12.992 38.368-33.408 46.176-58.016-20.288 12.096-42.688 20.64-66.56 25.408C411.872 60.704 384.416 48 354.464 48c-58.112 0-104.896 47.168-104.896 104.992 0 8.32.704 16.32 2.432 23.936-87.264-4.256-164.48-46.08-216.352-109.792-9.056 15.712-14.368 33.696-14.368 53.056 0 36.352 18.72 68.576 46.624 87.232-16.864-.32-33.408-5.216-47.424-12.928v1.152c0 51.008 36.384 93.376 84.096 103.136-8.544 2.336-17.856 3.456-27.52 3.456-6.72 0-13.504-.384-19.872-1.792 13.6 41.568 52.192 72.128 98.08 73.12-35.712 27.936-81.056 44.768-130.144 44.768-8.608 0-16.864-.384-25.12-1.44C46.496 446.88 101.6 464 161.024 464c193.152 0 298.752-160 298.752-298.688 0-4.64-.16-9.12-.384-13.568 20.832-14.784 38.336-33.248 52.608-54.496z"></path>
    </symbol>
    <symbol xmlns="http://www.w3.org/2000/svg" viewBox="0 0 167.657 167.657" id="facebook">
        <path d="M83.829.349C37.532.349 0 37.881 0 84.178c0 41.523 30.222 75.911 69.848 82.57v-65.081H49.626v-23.42h20.222V60.978c0-20.037 12.238-30.956 30.115-30.956 8.562 0 15.92.638 18.056.919v20.944l-12.399.006c-9.72 0-11.594 4.618-11.594 11.397v14.947h23.193l-3.025 23.42H94.026v65.653c41.476-5.048 73.631-40.312 73.631-83.154 0-46.273-37.532-83.805-83.828-83.805z"
              fill="#010002"></path>
    </symbol>
    <symbol xmlns="http://www.w3.org/2000/svg" viewBox="0 0 104 104" id="icon1">
        <title>icon1</title>
        <g fill="none">
            <path fill="#00F3BB" d="M43.333 17.333h17.333V20.8H43.333zm0 6.934h17.333v3.467H43.333z"></path>
            <path d="M95.333 90.133V76.267c0-.77-.508-1.448-1.248-1.664l-40.352-11.77V41.6h12.134c.958 0 1.733-.777 1.733-1.733V12.133c0-.459-.182-.901-.508-1.225l-10.4-10.4A1.726 1.726 0 0055.467 0H38.133C37.175 0 36.4.777 36.4 1.733v38.134c0 .956.775 1.733 1.733 1.733h12.134v21.233L9.915 74.603a1.734 1.734 0 00-1.248 1.664v13.866c0 .77.508 1.448 1.248 1.664l41.6 12.134a1.711 1.711 0 00.97 0l41.6-12.134a1.734 1.734 0 001.248-1.664zM57.2 5.918l4.482 4.482H57.2V5.918zM39.867 3.467h13.866v8.666c0 .957.775 1.734 1.734 1.734h8.666v24.266H39.867V3.467zm10.4 62.977v9.105l-3.975-3.974-2.45 2.45 6.933 6.934a1.729 1.729 0 002.45 0l6.934-6.934-2.451-2.45-3.975 3.974v-9.105l33.677 9.823L52 86.594 16.59 76.267l33.677-9.823zM12.133 78.577L50.267 89.7v10.256L12.133 88.833V78.577zm41.6 21.38V89.7l38.134-11.123v10.256L53.733 99.956z"
                  fill="#0000EC"></path>
            <path fill="#00F3BB" d="M43.333 10.4h6.933v3.467h-6.933z"></path>
            <path d="M1.733 41.6h12.134c0 4.779 3.888 8.667 8.666 8.667h5.2c2.867 0 5.2 2.333 5.2 5.2v2.749L28.96 54.24l-2.451 2.451 6.933 6.933a1.729 1.729 0 002.451 0l6.933-6.933-2.45-2.45-3.975 3.974v-2.75c0-4.778-3.888-8.666-8.667-8.666h-5.2a5.206 5.206 0 01-5.2-5.2h12.134c.958 0 1.733-.777 1.733-1.733V12.133c0-.459-.182-.901-.508-1.225l-10.4-10.4A1.726 1.726 0 0019.067 0H1.733C.775 0 0 .777 0 1.733v38.134c0 .956.775 1.733 1.733 1.733zM20.8 5.918l4.482 4.482H20.8V5.918zM3.467 3.467h13.866v8.666c0 .957.775 1.734 1.734 1.734h8.666v24.266H3.467V3.467z"
                  fill="#0000EC"></path>
            <path fill="#00F3BB"
                  d="M6.933 17.333h17.333V20.8H6.933zm0 6.934h17.333v3.467H6.933zm0 6.933h17.333v3.467H6.933zm0-20.8h6.933v3.467H6.933z"></path>
            <path d="M104 39.867V12.133c0-.459-.182-.901-.508-1.225l-10.4-10.4A1.726 1.726 0 0091.867 0H74.533C73.575 0 72.8.777 72.8 1.733v38.134c0 .956.775 1.733 1.733 1.733h12.134c0 2.867-2.333 5.2-5.2 5.2h-5.2c-4.78 0-8.667 3.888-8.667 8.667v2.749l-3.975-3.975-2.45 2.451 6.933 6.933a1.729 1.729 0 002.45 0l6.934-6.933-2.45-2.45-3.975 3.974v-2.75c0-2.866 2.333-5.2 5.2-5.2h5.2c4.778 0 8.666-3.887 8.666-8.666h12.134c.958 0 1.733-.777 1.733-1.733zM93.6 5.917l4.482 4.483H93.6V5.918zM76.267 38.134V3.467h13.866v8.666c0 .957.775 1.734 1.734 1.734h8.666v24.266H76.267z"
                  fill="#0000EC"></path>
            <path fill="#00F3BB"
                  d="M79.733 17.333h17.333V20.8H79.733zm0 6.934h17.333v3.467H79.733zm0 6.933h17.333v3.467H79.733zm0-20.8h6.933v3.467h-6.933zm-36.4 20.8H46.8v3.467h-3.467zm6.934 0h3.467v3.467h-3.467zm6.933 0h3.467v3.467H57.2z"></path>
        </g>
    </symbol>
    <symbol xmlns="http://www.w3.org/2000/svg" viewBox="0 0 104 104" id="icon2">
        <title>icon2</title>
        <g fill="none">
            <path d="M34.774 39.626H18.952c-.457 0-.896.18-1.219.505l-6.386 6.386H10.02c-.713-2-2.608-3.445-4.851-3.445A5.175 5.175 0 000 48.24a5.175 5.175 0 005.169 5.169c2.243 0 4.138-1.446 4.851-3.446h2.04c.457 0 .896-.18 1.218-.505l6.387-6.386h15.11c.713 2 2.608 3.445 4.85 3.445 1.31 0 2.492-.504 3.404-1.309l7.02 3.906a5.105 5.105 0 00-.086.85 5.175 5.175 0 005.169 5.168 5.175 5.175 0 005.168-5.169c0-.291-.04-.572-.086-.85l7.02-3.905c.912.805 2.094 1.31 3.403 1.31a5.175 5.175 0 005.169-5.17c0-2.242-1.445-4.138-3.446-4.85V28.97c2-.713 3.446-2.608 3.446-4.852a5.175 5.175 0 00-5.169-5.168c-1.309 0-2.49.505-3.402 1.31l-7.02-3.907c.046-.275.085-.556.085-.847a5.175 5.175 0 00-5.168-5.169 5.175 5.175 0 00-5.169 5.169c0 .29.04.572.086.85l-7.02 3.905c-.912-.805-2.094-1.31-3.403-1.31-2.243 0-4.138 1.446-4.852 3.446h-15.11l-6.386-6.386a1.718 1.718 0 00-1.218-.505h-2.04c-.713-2-2.608-3.446-4.851-3.446A5.175 5.175 0 000 17.23a5.175 5.175 0 005.169 5.168c2.243 0 4.138-1.445 4.851-3.445h1.327l6.386 6.386a1.72 1.72 0 001.219.505h15.822a5.163 5.163 0 003.129 3.129v2.04H10.02c-.713-2-2.608-3.446-4.851-3.446A5.175 5.175 0 000 32.734a5.175 5.175 0 005.169 5.169c2.243 0 4.138-1.445 4.851-3.446h27.883v2.04a5.163 5.163 0 00-3.129 3.129zM5.17 49.963c-.95 0-1.723-.773-1.723-1.723 0-.95.773-1.723 1.723-1.723.949 0 1.722.774 1.722 1.723 0 .95-.773 1.723-1.722 1.723zm0-31.011c-.95 0-1.723-.774-1.723-1.723 0-.95.773-1.723 1.723-1.723.949 0 1.722.773 1.722 1.723 0 .949-.773 1.723-1.722 1.723zm0 15.505c-.95 0-1.723-.773-1.723-1.723 0-.949.773-1.722 1.723-1.722.949 0 1.722.773 1.722 1.722 0 .95-.773 1.723-1.722 1.723zm34.457 8.615c-.95 0-1.723-.774-1.723-1.723 0-.95.774-1.723 1.723-1.723.95 0 1.723.773 1.723 1.723 0 .949-.774 1.723-1.723 1.723zm3.403-15.093l7.02 3.906a5.105 5.105 0 00-.086.85c0 .29.04.571.086.849l-7.02 3.906a5.178 5.178 0 00-1.68-.993V28.97a5.096 5.096 0 001.68-.99zm24.206 9.51l-7.02-3.905c.046-.278.085-.558.085-.85 0-.29-.04-.572-.086-.849l7.02-3.906c.49.431 1.055.769 1.68.993v7.527a5.096 5.096 0 00-1.68.99zM44.708 40.5l7.021-3.905c.49.43 1.054.768 1.68.992v7.527a5.13 5.13 0 00-1.68.993l-7.02-3.906c.046-.28.085-.56.085-.851 0-.291-.04-.572-.086-.85zm10.424-9.487c.949 0 1.723.773 1.723 1.722 0 .95-.774 1.723-1.723 1.723-.95 0-1.723-.773-1.723-1.723 0-.949.773-1.722 1.723-1.722zm1.723 6.574a5.13 5.13 0 001.68-.992l7.02 3.905a5.105 5.105 0 00-.086.85c0 .29.04.572.086.85l-7.02 3.905a5.178 5.178 0 00-1.68-.993v-7.525zm8.7-12.617l-7.02 3.906a5.178 5.178 0 00-1.68-.992v-7.527a5.13 5.13 0 001.68-.993l7.02 3.906c-.047.28-.086.56-.086.851 0 .291.04.572.086.85zm-12.146 2.914a5.13 5.13 0 00-1.68.992l-7.02-3.906c.046-.277.085-.558.085-.849 0-.291-.04-.572-.086-.85l7.021-3.905c.49.43 1.054.768 1.68.992v7.526zm1.723 23.803c-.95 0-1.723-.774-1.723-1.723 0-.95.773-1.723 1.723-1.723.949 0 1.723.774 1.723 1.723 0 .95-.774 1.723-1.723 1.723zm15.505-8.614a1.725 1.725 0 01-1.722-1.723c0-.95.773-1.723 1.722-1.723.95 0 1.723.773 1.723 1.723 0 .949-.773 1.723-1.723 1.723zm0-20.675c.95 0 1.723.774 1.723 1.723 0 .95-.773 1.723-1.723 1.723a1.725 1.725 0 01-1.722-1.723c0-.95.773-1.723 1.722-1.723zm-15.505-8.614c.949 0 1.723.773 1.723 1.723 0 .95-.774 1.723-1.723 1.723-.95 0-1.723-.774-1.723-1.723 0-.95.773-1.723 1.723-1.723zm-15.506 8.614c.95 0 1.723.774 1.723 1.723 0 .95-.774 1.723-1.723 1.723-.95 0-1.723-.774-1.723-1.723 0-.95.774-1.723 1.723-1.723z"
                  fill="#00F3BB"></path>
            <path d="M36.18 103.372h27.566c.951 0 1.723-.772 1.723-1.723v-12.06h22.397c.951 0 1.723-.772 1.723-1.723V67.192h12.06a1.723 1.723 0 001.645-2.238l-8.59-27.487c-.344-10.454-4.758-20.102-12.463-27.213C74.447 3.064 64.29-.548 53.666.07c-12.23.714-23.559 7.424-30.307 17.95l2.9 1.86c6.157-9.602 16.477-15.722 27.61-16.373 9.684-.57 18.938 2.729 26.034 9.28 7.12 6.568 11.157 15.519 11.367 25.2.007.297.095.578.243.821l7.793 24.937h-11.44c-.95 0-1.723.772-1.723 1.723v6.891h-5.168a5.175 5.175 0 01-5.169-5.168H72.36c0 4.75 3.865 8.614 8.615 8.614h5.168v10.337H63.746c-.951 0-1.723.772-1.723 1.723v12.06h-24.12V98.26c0-13.94-4.19-28.193-12.119-41.22a35 35 0 01-3.94-9.24l-3.332.881a38.449 38.449 0 004.328 10.151c7.6 12.488 11.617 26.12 11.617 39.428v3.389c0 .951.772 1.723 1.723 1.723z"
                  fill="#0000EC"></path>
        </g>
    </symbol>
    <symbol xmlns="http://www.w3.org/2000/svg" viewBox="0 0 104 104" id="icon3">
        <title>icon3</title>
        <g fill="none">
            <path d="M8.667 104h86.666c4.78 0 8.667-3.888 8.667-8.667V93.6h-.012c0-.205-.024-.41-.097-.608L93.6 65.552V8.666C93.6 3.887 89.712 0 84.933 0H19.067C14.287 0 10.4 3.888 10.4 8.667V65.55L.11 92.991a1.747 1.747 0 00-.098.609H0v1.733C0 100.113 3.888 104 8.667 104zm86.666-3.467H8.667a5.206 5.206 0 01-5.2-5.2h33.949l1.225 1.226c.324.326.766.508 1.226.508h24.266c.46 0 .902-.182 1.226-.508l1.225-1.226h33.95c0 2.867-2.334 5.2-5.2 5.2zM19.067 3.467h65.866c2.867 0 5.2 2.333 5.2 5.2v55.466H13.867V8.667c0-2.867 2.333-5.2 5.2-5.2zM13.335 67.6h77.33l9.1 24.267H65.867c-.46 0-.902.182-1.226.508L63.416 93.6H40.584l-1.225-1.225a1.729 1.729 0 00-1.226-.508H4.235l9.1-24.267z"
                  fill="#0000EC"></path>
            <path fill="#0000EC"
                  d="M12.133 84.933h6.933V88.4h-6.933zm12.134 0H31.2V88.4h-6.933zm12.133 0h31.2V88.4H36.4zm36.4 0h6.933V88.4H72.8zm12.133 0h6.933V88.4h-6.933zM13.867 78h10.4v3.467h-10.4zm15.6 0H36.4v3.467h-6.933zM41.6 78h6.933v3.467H41.6zm12.133 0h6.933v3.467h-6.933zm12.134 0H72.8v3.467h-6.933zM78 78h12.133v3.467H78zm-53.733-6.933h3.467v3.467h-3.467zm-6.934 0H20.8v3.467h-3.467zm15.6 0h6.933v3.467h-6.933zm12.134 0H52v3.467h-6.933zm12.133 0h6.933v3.467H57.2zm12.133 0h6.933v3.467h-6.933zm12.134 0H88.4v3.467h-6.933zm-62.4-10.4h65.866c.957 0 1.734-.777 1.734-1.734V8.667c0-.957-.777-1.734-1.734-1.734H19.067c-.957 0-1.734.777-1.734 1.734v50.266c0 .957.777 1.734 1.734 1.734zM20.8 10.4h62.4v46.8H20.8V10.4z"></path>
            <path d="M29.975 14.375l-5.2 5.2a1.731 1.731 0 000 2.45l5.2 5.2 2.45-2.45-3.974-3.975 3.974-3.975-2.45-2.45zm19.784 0l-2.451 2.45 3.974 3.975-3.974 3.975 2.45 2.45 5.2-5.2a1.731 1.731 0 000-2.45l-5.2-5.2zm2.749 24.266l-5.2 5.2a1.731 1.731 0 000 2.451l5.2 5.2 2.45-2.45-3.974-3.975 3.975-3.975-2.451-2.45zm19.784 0l-2.45 2.451 3.974 3.975-3.975 3.974 2.451 2.451 5.2-5.2a1.731 1.731 0 000-2.45l-5.2-5.2zM57.38 49.492l5.2-10.4 3.101 1.551-5.2 10.4zm-15.78-.959h3.467V52H41.6zm-6.933 0h3.467V52h-3.467zm-6.934 0H31.2V52h-3.467zm38.134-26H62.4V26h1.733v5.2H67.6v-6.933c0-.957-.777-1.734-1.733-1.734zM62.4 15.6h3.467v3.467H62.4z"
                  fill="#00F3BB"></path>
        </g>
    </symbol>
    <symbol xmlns="http://www.w3.org/2000/svg" viewBox="0 0 104 104" id="icon4">
        <title>icon4</title>
        <g fill="none">
            <path d="M91.312 25.843c.456 0 .896-.18 1.218-.505l6.891-6.891c.324-.322.505-.762.505-1.218V10.02c2-.713 3.446-2.608 3.446-4.851A5.175 5.175 0 0098.203 0a5.175 5.175 0 00-5.168 5.169c0 2.243 1.445 4.138 3.445 4.851v6.495l-5.88 5.882H69.72c-1.25-.773-2.53-1.493-3.86-2.095a1.647 1.647 0 00-.39-.107v-7.422l5.882-5.882h3.05c.712 2 2.608 3.446 4.85 3.446a5.175 5.175 0 005.17-5.168A5.175 5.175 0 0079.25 0c-2.242 0-4.138 1.445-4.85 3.446h-3.764c-.456 0-.895.18-1.218.505l-6.891 6.891a1.718 1.718 0 00-.505 1.218v10.63l-1.139 1.216a28.93 28.93 0 00-3.26-.871l-1.006-4.31A1.724 1.724 0 0055.11 17.4c-.579-.057-1.135-.057-1.7-.084V10.02c2-.713 3.446-2.608 3.446-4.851A5.175 5.175 0 0051.685 0a5.175 5.175 0 00-5.168 5.169c0 2.243 1.446 4.138 3.446 4.851v7.297c-.565.029-1.123.027-1.7.084a1.724 1.724 0 00-1.51 1.323l-1.006 4.31a28.902 28.902 0 00-3.258.872l-1.14-1.218V12.06c0-.457-.181-.896-.505-1.218l-6.892-6.891a1.718 1.718 0 00-1.218-.505h-3.762C28.258 1.446 26.363 0 24.12 0a5.175 5.175 0 00-5.168 5.169 5.175 5.175 0 005.168 5.168c2.243 0 4.138-1.445 4.852-3.446h3.05l5.881 5.882v7.422c-.13.026-.264.05-.391.107-1.328.602-2.607 1.322-3.86 2.095H12.774l-5.882-5.882V10.02c2-.713 3.446-2.608 3.446-4.851A5.175 5.175 0 005.17 0 5.175 5.175 0 000 5.169c0 2.243 1.445 4.138 3.446 4.851v7.209c0 .456.18.896.505 1.218l6.891 6.891c.322.324.761.505 1.218.505h18.946l1.206 3.97a29.482 29.482 0 00-2.4 2.4l-4.176-1.27a1.719 1.719 0 00-1.898.64 35.279 35.279 0 00-1.863 2.874h-6.688c-.711-2-2.607-3.445-4.85-3.445A5.175 5.175 0 005.17 36.18a5.175 5.175 0 005.168 5.169c2.243 0 4.139-1.446 4.852-3.446h5.006c-.108.57.062 1.166.5 1.576l3.211 3.009a28.93 28.93 0 00-.871 3.26l-4.31 1.005a1.724 1.724 0 00-1.324 1.51c-.057.578-.057 1.132-.086 1.7H10.02c-.713-2-2.608-3.446-4.851-3.446A5.175 5.175 0 000 51.686a5.175 5.175 0 005.169 5.169c2.243 0 4.138-1.446 4.851-3.446h7.297c.029.568.029 1.121.086 1.7a1.724 1.724 0 001.323 1.51l4.31 1.006a29.12 29.12 0 00.872 3.258l-3.211 3.008a1.71 1.71 0 00-.5 1.578H15.19c-.714-2-2.61-3.446-4.853-3.446a5.175 5.175 0 00-5.168 5.169 5.175 5.175 0 005.168 5.168c2.243 0 4.139-1.445 4.852-3.445h6.688a34.62 34.62 0 001.86 2.872 1.72 1.72 0 001.9.64l4.177-1.268a29.21 29.21 0 002.4 2.4l-1.21 3.97H12.06c-.457 0-.896.18-1.218.505l-6.891 6.891a1.718 1.718 0 00-.505 1.218v7.209C1.446 94.065 0 95.96 0 98.203a5.175 5.175 0 005.169 5.169 5.175 5.175 0 005.168-5.169c0-2.243-1.445-4.138-3.446-4.851v-6.496l5.882-5.881h20.88c1.25.771 2.529 1.493 3.859 2.095.126.056.258.082.391.108v7.42l-5.882 5.882h-3.05c-.713-2-2.608-3.445-4.85-3.445a5.175 5.175 0 00-5.17 5.168 5.175 5.175 0 005.17 5.169c2.242 0 4.137-1.446 4.85-3.446h3.763c.457 0 .896-.18 1.218-.505l6.892-6.891c.324-.322.505-.762.505-1.218v-10.63l1.139-1.217a28.93 28.93 0 003.26.872l1.005 4.31c.167.72.776 1.252 1.51 1.324.578.057 1.132.057 1.7.086v7.296c-2 .714-3.446 2.609-3.446 4.852a5.175 5.175 0 005.169 5.169 5.175 5.175 0 005.169-5.169c0-2.243-1.446-4.138-3.446-4.852v-7.296c.568-.03 1.123-.03 1.7-.086a1.724 1.724 0 001.51-1.323l1.006-4.31a28.902 28.902 0 003.258-.873l1.14 1.218v10.629c0 .456.181.896.505 1.218l6.891 6.891a1.72 1.72 0 001.218.505H74.4c.713 2 2.609 3.446 4.852 3.446a5.175 5.175 0 005.168-5.169 5.175 5.175 0 00-5.168-5.168c-2.243 0-4.139 1.445-4.852 3.445h-3.05l-5.88-5.88v-7.42c.13-.027.263-.05.39-.108 1.33-.6 2.608-1.321 3.86-2.095H90.6l5.881 5.88v6.496c-2 .713-3.445 2.608-3.445 4.851a5.175 5.175 0 005.168 5.169 5.175 5.175 0 005.169-5.169c0-2.243-1.446-4.138-3.446-4.851v-7.209c0-.456-.18-.896-.505-1.218l-6.891-6.891a1.718 1.718 0 00-1.218-.505H72.365l-1.206-3.97a29.21 29.21 0 002.4-2.4l4.175 1.27a1.722 1.722 0 001.899-.64 34.669 34.669 0 001.862-2.874h6.688c.713 2 2.609 3.445 4.852 3.445a5.175 5.175 0 005.168-5.168 5.175 5.175 0 00-5.168-5.169c-2.243 0-4.139 1.446-4.852 3.446h-5.007a1.709 1.709 0 00-.5-1.577l-3.21-3.008a28.93 28.93 0 00.871-3.26l4.31-1.006a1.724 1.724 0 001.324-1.509c.057-.579.057-1.132.086-1.7h7.296c.714 2 2.609 3.446 4.852 3.446a5.175 5.175 0 005.169-5.17 5.175 5.175 0 00-5.169-5.168c-2.243 0-4.138 1.446-4.852 3.446h-7.296c-.03-.568-.03-1.123-.086-1.7a1.724 1.724 0 00-1.323-1.51l-4.31-1.006a28.902 28.902 0 00-.873-3.258l3.212-3.008a1.71 1.71 0 00.5-1.578h5.006c.713 2 2.609 3.446 4.852 3.446a5.175 5.175 0 005.168-5.169 5.175 5.175 0 00-5.168-5.168c-2.243 0-4.139 1.445-4.852 3.445h-6.688a34.62 34.62 0 00-1.86-2.872 1.722 1.722 0 00-1.901-.64l-4.176 1.267a29.21 29.21 0 00-2.4-2.4l1.206-3.969h18.948zm6.891-22.397c.95 0 1.723.773 1.723 1.723 0 .949-.773 1.722-1.723 1.722a1.725 1.725 0 01-1.723-1.722c0-.95.774-1.723 1.723-1.723zm-18.951 0c.95 0 1.723.773 1.723 1.723 0 .949-.774 1.722-1.723 1.722-.95 0-1.723-.773-1.723-1.722 0-.95.773-1.723 1.723-1.723zM24.12 6.89c-.95 0-1.723-.773-1.723-1.722 0-.95.774-1.723 1.723-1.723.95 0 1.723.773 1.723 1.723 0 .949-.774 1.722-1.723 1.722zM5.17 3.446c.949 0 1.722.773 1.722 1.723 0 .949-.773 1.722-1.722 1.722-.95 0-1.723-.773-1.723-1.722 0-.95.773-1.723 1.723-1.723zm5.168 34.457c-.95 0-1.723-.774-1.723-1.723 0-.95.774-1.723 1.723-1.723.95 0 1.723.774 1.723 1.723 0 .95-.774 1.723-1.723 1.723zm0 31.012c-.95 0-1.723-.774-1.723-1.723 0-.95.774-1.723 1.723-1.723.95 0 1.723.773 1.723 1.723 0 .949-.774 1.723-1.723 1.723zM5.17 99.926c-.95 0-1.723-.773-1.723-1.723 0-.949.773-1.723 1.723-1.723.949 0 1.722.774 1.722 1.723 0 .95-.773 1.723-1.722 1.723zm18.951 0c-.95 0-1.723-.773-1.723-1.723 0-.949.774-1.723 1.723-1.723.95 0 1.723.774 1.723 1.723 0 .95-.774 1.723-1.723 1.723zm55.132-3.446c.95 0 1.723.774 1.723 1.723 0 .95-.774 1.723-1.723 1.723-.95 0-1.723-.773-1.723-1.723 0-.949.773-1.723 1.723-1.723zm18.951 3.446a1.726 1.726 0 01-1.723-1.723c0-.949.774-1.723 1.723-1.723.95 0 1.723.774 1.723 1.723 0 .95-.773 1.723-1.723 1.723zM93.035 65.47c.949 0 1.723.773 1.723 1.723 0 .949-.774 1.723-1.723 1.723-.95 0-1.723-.774-1.723-1.723 0-.95.773-1.723 1.723-1.723zm0-31.012c.949 0 1.723.774 1.723 1.723 0 .95-.774 1.723-1.723 1.723-.95 0-1.723-.774-1.723-1.723 0-.95.773-1.723 1.723-1.723zM51.685 3.446c.95 0 1.724.773 1.724 1.723 0 .949-.774 1.722-1.723 1.722-.95 0-1.723-.773-1.723-1.722 0-.95.774-1.723 1.723-1.723zM5.17 53.409c-.95 0-1.723-.774-1.723-1.723 0-.95.773-1.723 1.723-1.723.949 0 1.722.774 1.722 1.723 0 .95-.773 1.723-1.722 1.723zm46.517 46.517c-.95 0-1.723-.773-1.723-1.723 0-.949.774-1.723 1.723-1.723.95 0 1.723.774 1.723 1.723 0 .95-.774 1.723-1.723 1.723zm46.517-49.963c.95 0 1.723.774 1.723 1.723 0 .95-.773 1.723-1.723 1.723a1.726 1.726 0 01-1.723-1.723c0-.95.774-1.723 1.723-1.723zm-26.55-14.68a1.723 1.723 0 001.832.553l4.05-1.23a31.529 31.529 0 011.868 3.221l-3.113 2.915a1.72 1.72 0 00-.434 1.864 25.762 25.762 0 011.296 4.845 1.722 1.722 0 001.307 1.396l4.182.975a29.891 29.891 0 01-.002 3.728l-4.181.975a1.722 1.722 0 00-1.308 1.396 25.894 25.894 0 01-1.296 4.844 1.728 1.728 0 00.434 1.865l3.114 2.915a31.427 31.427 0 01-1.868 3.221l-4.049-1.231a1.724 1.724 0 00-1.831.553 26.104 26.104 0 01-3.565 3.564 1.721 1.721 0 00-.553 1.832l1.23 4.05a31.529 31.529 0 01-3.221 1.868l-2.915-3.114a1.724 1.724 0 00-1.865-.434 25.762 25.762 0 01-4.844 1.296 1.722 1.722 0 00-1.396 1.308l-.975 4.18a29.91 29.91 0 01-3.728 0l-.975-4.18a1.722 1.722 0 00-1.396-1.308 25.894 25.894 0 01-4.845-1.296 1.723 1.723 0 00-1.864.434l-2.917 3.114a31.162 31.162 0 01-3.221-1.868l1.232-4.049a1.72 1.72 0 00-.553-1.831 26.104 26.104 0 01-3.565-3.565 1.716 1.716 0 00-1.831-.553l-4.05 1.23a31.529 31.529 0 01-1.869-3.221l3.114-2.915a1.72 1.72 0 00.434-1.865 25.762 25.762 0 01-1.296-4.844 1.722 1.722 0 00-1.307-1.396l-4.182-.975a29.891 29.891 0 01.002-3.728l4.181-.975a1.722 1.722 0 001.308-1.396 25.894 25.894 0 011.296-4.845 1.728 1.728 0 00-.435-1.864l-3.113-2.915a31.427 31.427 0 011.868-3.222l4.049 1.23a1.714 1.714 0 001.83-.552 26.201 26.201 0 013.566-3.565 1.721 1.721 0 00.553-1.831l-1.23-4.05a31.529 31.529 0 013.221-1.869l2.915 3.114a1.728 1.728 0 001.864.434 25.762 25.762 0 014.845-1.296 1.722 1.722 0 001.396-1.307l.975-4.182a29.91 29.91 0 013.728 0l.975 4.182c.159.678.71 1.194 1.396 1.307 1.655.274 3.285.712 4.844 1.296a1.731 1.731 0 001.865-.434l2.916-3.114a31.162 31.162 0 013.222 1.868l-1.232 4.049a1.72 1.72 0 00.553 1.831 26.312 26.312 0 013.565 3.567z"
                  fill="#0000EC"></path>
            <path d="M51.686 32.734c-7.706 0-15.506 2.368-15.506 6.892v25.843c0 4.524 7.8 6.891 15.506 6.891s15.506-2.367 15.506-6.891V39.626c0-4.524-7.8-6.892-15.506-6.892zm0 36.18c-7.834 0-12.06-2.444-12.06-3.445v-4.135c2.99 1.59 7.536 2.412 12.06 2.412 4.524 0 9.07-.822 12.06-2.412v4.135c0 1-4.226 3.446-12.06 3.446zm0-8.614c-7.834 0-12.06-2.444-12.06-3.445V52.72c2.99 1.59 7.536 2.412 12.06 2.412 4.524 0 9.07-.822 12.06-2.412v4.135c0 1-4.226 3.445-12.06 3.445zm0-8.614c-7.834 0-12.06-2.445-12.06-3.446v-4.135c2.99 1.59 7.536 2.412 12.06 2.412 4.524 0 9.07-.821 12.06-2.412v4.135c0 1.001-4.226 3.446-12.06 3.446zm0-8.614c-7.834 0-12.06-2.445-12.06-3.446 0-1.001 4.226-3.446 12.06-3.446 7.834 0 12.06 2.445 12.06 3.446 0 1-4.226 3.446-12.06 3.446z"
                  fill="#00F3BB"></path>
        </g>
    </symbol>
    <symbol xmlns="http://www.w3.org/2000/svg" viewBox="0 0 511 511.9" id="instagram">
        <path d="M510.95 150.5c-1.2-27.2-5.598-45.898-11.9-62.102-6.5-17.199-16.5-32.597-29.6-45.398-12.802-13-28.302-23.102-45.302-29.5-16.296-6.3-34.898-10.7-62.097-11.898C334.648.3 325.949 0 256.449 0s-78.199.3-105.5 1.5c-27.199 1.2-45.898 5.602-62.097 11.898-17.204 6.5-32.602 16.5-45.403 29.602-13 12.8-23.097 28.3-29.5 45.3-6.3 16.302-10.699 34.9-11.898 62.098C.75 177.801.449 186.5.449 256s.301 78.2 1.5 105.5c1.2 27.2 5.602 45.898 11.903 62.102 6.5 17.199 16.597 32.597 29.597 45.398 12.801 13 28.301 23.102 45.301 29.5 16.3 6.3 34.898 10.7 62.102 11.898 27.296 1.204 36 1.5 105.5 1.5s78.199-.296 105.5-1.5c27.199-1.199 45.898-5.597 62.097-11.898a130.934 130.934 0 0074.903-74.898c6.296-16.301 10.699-34.903 11.898-62.102 1.2-27.3 1.5-36 1.5-105.5s-.102-78.2-1.3-105.5zm-46.098 209c-1.102 25-5.301 38.5-8.801 47.5-8.602 22.3-26.301 40-48.602 48.602-9 3.5-22.597 7.699-47.5 8.796-27 1.204-35.097 1.5-103.398 1.5s-76.5-.296-103.403-1.5c-25-1.097-38.5-5.296-47.5-8.796C94.551 451.5 84.45 445 76.25 436.5c-8.5-8.3-15-18.3-19.102-29.398-3.5-9-7.699-22.602-8.796-47.5-1.204-27-1.5-35.102-1.5-103.403s.296-76.5 1.5-103.398c1.097-25 5.296-38.5 8.796-47.5C61.25 94.199 67.75 84.1 76.352 75.898c8.296-8.5 18.296-15 29.398-19.097 9-3.5 22.602-7.7 47.5-8.801 27-1.2 35.102-1.5 103.398-1.5 68.403 0 76.5.3 103.403 1.5 25 1.102 38.5 5.3 47.5 8.8 11.097 4.098 21.199 10.598 29.398 19.098 8.5 8.301 15 18.301 19.102 29.403 3.5 9 7.699 22.597 8.8 47.5 1.2 27 1.5 35.097 1.5 103.398s-.3 76.301-1.5 103.301zm0 0"></path>
        <path d="M256.45 124.5c-72.598 0-131.5 58.898-131.5 131.5s58.902 131.5 131.5 131.5c72.6 0 131.5-58.898 131.5-131.5s-58.9-131.5-131.5-131.5zm0 216.8c-47.098 0-85.302-38.198-85.302-85.3s38.204-85.3 85.301-85.3c47.102 0 85.301 38.198 85.301 85.3s-38.2 85.3-85.3 85.3zm167.402-222c0 16.954-13.747 30.7-30.704 30.7-16.953 0-30.699-13.746-30.699-30.7 0-16.956 13.746-30.698 30.7-30.698 16.956 0 30.703 13.742 30.703 30.699zm0 0"></path>
    </symbol>
</svg>
